<?xml version="1.0" encoding="UTF-8"?> <svg xmlns="http://www.w3.org/2000/svg" width="228" height="49" viewBox="0 0 228 49" fill="none"><g clip-path="url(#clip0_87_26)"><path d="M71.7666 43.4323L59.2998 13.9583H67.0599L72.6418 27.7803C72.8946 28.3838 73.2058 29.1625 73.5364 30.1359C73.8671 31.1093 74.2171 32.1216 74.6061 33.1534C74.9757 34.2046 75.2868 35.1391 75.5591 35.9567H75.8898C76.1426 35.178 76.4538 34.263 76.7844 33.2507C77.115 32.2189 77.4457 31.2261 77.7958 30.2332C78.1264 29.2404 78.4376 28.4422 78.6904 27.7998L84.2723 13.9777H91.7601L79.2933 43.4517H71.7471L71.7666 43.4323Z" fill="white"></path><path d="M107.669 44.8534C104.207 44.8534 101.271 44.3083 98.859 43.1987C96.4474 42.1085 94.6192 40.4148 93.355 38.1371C92.0908 35.8594 91.449 32.9781 91.449 29.474C91.449 25.9698 92.0713 23.0886 93.3161 20.8109C94.5608 18.5332 96.389 16.8395 98.8007 15.7298C101.212 14.6202 104.11 14.0556 107.553 14.0556C110.995 14.0556 113.737 14.6007 116.013 15.7104C118.308 16.82 120.019 18.4553 121.186 20.6551C122.334 22.855 122.917 25.6194 122.917 28.9289V31.2845H98.9952C99.073 33.1144 99.4425 34.6134 100.143 35.7815C100.823 36.9495 101.815 37.8061 103.099 38.3512C104.383 38.8963 105.958 39.1689 107.825 39.1689C108.642 39.1689 109.498 39.0715 110.392 38.8574C111.287 38.6432 112.104 38.3512 112.843 37.9424C113.582 37.5336 114.204 36.9885 114.71 36.3266C115.216 35.6647 115.488 34.8665 115.527 33.971H122.801C122.801 35.6452 122.451 37.1637 121.731 38.507C121.031 39.8502 120 40.9988 118.677 41.9527C117.355 42.9066 115.76 43.6269 113.893 44.1331C112.026 44.6393 109.945 44.8923 107.63 44.8923L107.669 44.8534ZM99.0535 26.2813H115.313C115.313 25.1327 115.118 24.1398 114.729 23.3222C114.34 22.5046 113.796 21.8232 113.076 21.2781C112.376 20.733 111.54 20.3437 110.626 20.1101C109.692 19.8764 108.681 19.7402 107.611 19.7402C105.938 19.7402 104.48 19.9738 103.254 20.4605C102.029 20.9472 101.057 21.6675 100.376 22.6408C99.6953 23.6142 99.248 24.8212 99.0535 26.2813Z" fill="white"></path><path d="M134.334 19.3119C135.19 18.1633 136.59 17.0536 137.737 16.2749C138.885 15.5157 140.149 14.9511 141.511 14.5618C142.872 14.1919 144.253 13.9972 145.673 13.9972C147.987 13.9972 149.951 14.3866 151.605 15.1458C153.238 15.905 154.502 17.112 155.378 18.7279C156.253 20.3437 156.7 22.4656 156.7 25.0743V44.1526H149.426V26.3592C149.426 25.2106 149.271 24.2372 148.979 23.4585C148.687 22.6798 148.259 22.0568 147.695 21.5896C147.131 21.1224 146.451 20.7914 145.653 20.5773C144.856 20.3631 143.961 20.2658 143.008 20.2658C141.588 20.2658 140.285 20.5773 139.06 21.2197C137.854 21.8621 136.862 22.7382 136.123 23.8478C135.384 24.9575 135.015 26.2813 135.015 27.7608V44.1526H127.741V14.6981H134.314V19.3119H134.334Z" fill="white"></path><path d="M171.948 44.8534C169.945 44.8534 168.331 44.5225 167.144 43.8411C165.958 43.1792 165.102 42.2058 164.577 40.9404C164.052 39.675 163.799 38.1371 163.799 36.3461V20.5189H159.209V14.6981H164.013V6.30751H171.053V14.6981H177.588V20.5189H171.053V35.7426C171.053 36.8327 171.287 37.6504 171.754 38.1955C172.22 38.76 173.076 39.0326 174.36 39.0326H177.608V43.8995C177.16 44.0942 176.596 44.2499 175.935 44.3667C175.274 44.503 174.574 44.6003 173.873 44.6977C173.173 44.795 172.532 44.8339 171.967 44.8339L171.948 44.8534Z" fill="white"></path><path d="M182.937 44.5808V15.1069H190.211V44.5808H182.937Z" fill="#48C1EC"></path><path d="M205.089 44.7171C203.825 44.7171 202.541 44.6003 201.258 44.3472C199.974 44.1136 198.807 43.6853 197.737 43.0624C196.668 42.4394 195.831 41.5828 195.19 40.4926C194.548 39.4025 194.237 37.9619 194.237 36.2098C194.237 34.0099 194.781 32.2384 195.89 30.9146C196.979 29.5908 198.535 28.5785 200.519 27.8971C202.502 27.2157 204.875 26.7485 207.579 26.5344C210.301 26.3008 213.258 26.2034 216.467 26.2034V24.354C216.467 23.3027 216.253 22.4267 215.825 21.7259C215.397 21.025 214.697 20.4799 213.705 20.1295C212.713 19.7791 211.352 19.6039 209.601 19.6039C208.065 19.6039 206.801 19.7402 205.77 20.0322C204.739 20.3047 203.98 20.6941 203.475 21.1418C202.969 21.6091 202.716 22.1347 202.716 22.7382V23.4585H195.559C195.52 23.2638 195.501 23.0886 195.501 22.9329V22.3488C195.501 20.6357 196.065 19.1367 197.212 17.8713C198.34 16.6059 199.993 15.6325 202.133 14.9317C204.272 14.2503 206.859 13.8999 209.874 13.8999C212.888 13.8999 215.533 14.2503 217.595 14.9317C219.637 15.613 221.173 16.6837 222.204 18.0854C223.235 19.5066 223.741 21.3365 223.741 23.5753V36.8327C223.741 37.5336 223.916 38.0592 224.266 38.3901C224.616 38.7211 225.102 38.8963 225.686 38.8963H227.98V43.7632C227.611 43.9189 227.008 44.0942 226.172 44.3278C225.335 44.5614 224.363 44.6587 223.235 44.6587C221.932 44.6587 220.862 44.4835 220.026 44.1331C219.19 43.7827 218.528 43.2765 218.062 42.6146C217.595 41.9722 217.264 41.2129 217.089 40.3564H216.7C215.883 41.2519 214.891 42.0306 213.705 42.673C212.538 43.3349 211.235 43.8216 209.796 44.1915C208.357 44.5419 206.781 44.7171 205.07 44.7171H205.089ZM207.092 38.8963C208.24 38.8963 209.387 38.7406 210.496 38.4485C211.604 38.1565 212.616 37.7282 213.51 37.1832C214.405 36.6381 215.125 35.9567 215.669 35.1391C216.214 34.3214 216.486 33.4064 216.486 32.3941V30.9925C213.394 30.9925 210.729 31.1287 208.493 31.3818C206.256 31.6349 204.545 32.1216 203.358 32.8029C202.172 33.4843 201.569 34.4772 201.569 35.7426C201.569 36.4823 201.802 37.0858 202.288 37.553C202.775 38.0203 203.436 38.3512 204.272 38.5654C205.109 38.7795 206.042 38.8768 207.092 38.8768V38.8963Z" fill="#48C1EC"></path><path d="M186.399 12.6345C188.74 12.6345 190.638 10.7344 190.638 8.39054C190.638 6.04668 188.74 4.1466 186.399 4.1466C184.057 4.1466 182.159 6.04668 182.159 8.39054C182.159 10.7344 184.057 12.6345 186.399 12.6345Z" fill="#48C1EC"></path><path d="M26.5478 0.214143L12.8363 7.86492C11.7277 8.48788 11.7277 10.0064 12.8363 10.6293L27.4036 18.9225L44.4992 9.34446L28.201 0.214143C27.6953 -0.0778711 27.0535 -0.0778711 26.5284 0.214143H26.5478Z" fill="#48C1EC"></path><path d="M30.0098 35.5673L43.5657 28.0139C44.1102 27.7219 44.4409 27.1573 44.4409 26.5733L44.4798 11.4859L27.3842 21.064V34.1267C27.4231 35.4116 28.8623 36.2098 30.0098 35.5673Z" fill="#48C1EC"></path><path d="M18.1265 48.7664L31.624 41.2519C32.8104 40.59 32.8104 38.9547 31.624 38.2928L17.1929 29.7465L0.758545 39.2857L16.3371 48.7664C16.8817 49.0779 17.5624 49.0779 18.1265 48.7664Z" fill="#48C1EC"></path><path d="M14.4895 13.4911L0.894652 21.064C0.36953 21.356 0.0388979 21.9011 0.0388979 22.5046L0 37.6114L17.0956 28.0334L17.0567 14.9511C17.0567 13.6857 15.6175 12.8876 14.4895 13.5105V13.4911Z" fill="#48C1EC"></path></g><defs><clipPath id="clip0_87_26"><rect width="228" height="49" fill="white"></rect></clipPath></defs></svg> 